<svg width="10" height="10" viewBox="0 0 10 10" fill="none" xmlns="http://www.w3.org/2000/svg">
<path d="M5.46876 1.95834L8.21876 4.70834C8.26043 4.75001 8.29001 4.79515 8.30751 4.84376C8.32473 4.89237 8.33334 4.94445 8.33334 5.00001C8.33334 5.05556 8.32473 5.10765 8.30751 5.15626C8.29001 5.20487 8.26043 5.25001 8.21876 5.29167L5.46876 8.04167C5.39237 8.11806 5.29695 8.15806 5.18251 8.16167C5.06779 8.16501 4.96876 8.12501 4.88543 8.04167C4.80209 7.96528 4.75862 7.86987 4.75501 7.75542C4.75168 7.6407 4.79168 7.54167 4.87501 7.45834L6.91668 5.41667L2.26043 5.41667C2.14237 5.41667 2.04334 5.37681 1.96334 5.29709C1.88362 5.21709 1.84376 5.11806 1.84376 5.00001C1.84376 4.88195 1.88362 4.78306 1.96334 4.70334C2.04334 4.62334 2.14237 4.58334 2.26043 4.58334L6.91668 4.58334L4.87501 2.54167C4.79862 2.46528 4.75862 2.36806 4.75501 2.25001C4.75168 2.13195 4.79168 2.03473 4.87501 1.95834C4.9514 1.87501 5.04862 1.83334 5.16668 1.83334C5.28473 1.83334 5.38543 1.87501 5.46876 1.95834Z" fill="#B1B1B1"/>
</svg>
