<svg width="18" height="18" viewBox="0 0 18 18" fill="none" xmlns="http://www.w3.org/2000/svg">
<path d="M12.5625 3C12.9901 2.99995 13.4018 3.16222 13.7143 3.45403C14.0269 3.74583 14.217 4.14541 14.2462 4.572L14.25 4.6875V13.125C14.2498 13.2187 14.2847 13.3091 14.3479 13.3783C14.411 13.4476 14.4978 13.4907 14.5911 13.4992C14.6844 13.5076 14.7776 13.4808 14.8521 13.4241C14.9267 13.3673 14.9773 13.2847 14.994 13.1925L15 13.125V5.2605C15.3915 5.30427 15.7553 5.4836 16.0284 5.76741C16.3015 6.05123 16.4668 6.42165 16.4955 6.8145L16.5 6.9375V12.5625C16.5 13.1851 16.2618 13.7841 15.8342 14.2367C15.4067 14.6892 14.8221 14.961 14.2005 14.9963L14.0625 15H3.9375C3.3149 15 2.71588 14.7618 2.26333 14.3342C1.81078 13.9067 1.539 13.3221 1.50375 12.7005L1.5 12.5625V4.6875C1.49995 4.25991 1.66222 3.84823 1.95403 3.53569C2.24583 3.22314 2.64541 3.03302 3.072 3.00375L3.1875 3H12.5625ZM6.936 8.25H4.311C4.16182 8.25 4.01874 8.30926 3.91325 8.41475C3.80776 8.52024 3.7485 8.66332 3.7485 8.8125V11.4375C3.7485 11.748 4.0005 12 4.311 12H6.936C7.08518 12 7.22826 11.9407 7.33375 11.8352C7.43924 11.7298 7.4985 11.5867 7.4985 11.4375V8.8125C7.4985 8.66332 7.43924 8.52024 7.33375 8.41475C7.22826 8.30926 7.08518 8.25 6.936 8.25ZM11.439 10.875H9.5655L9.489 10.8802C9.34781 10.8997 9.21926 10.972 9.12932 11.0825C9.03939 11.1931 8.99477 11.3337 9.00448 11.4758C9.01419 11.618 9.07752 11.7512 9.18166 11.8485C9.28579 11.9458 9.42298 12 9.5655 12H11.439L11.5155 11.9948C11.6567 11.9753 11.7852 11.903 11.8752 11.7925C11.9651 11.6819 12.0097 11.5413 12 11.3992C11.9903 11.257 11.927 11.1238 11.8228 11.0265C11.7187 10.9292 11.5815 10.875 11.439 10.875V10.875ZM6.3735 9.375V10.875H4.8735V9.375H6.3735ZM11.4375 8.25L9.564 8.25375L9.4875 8.25825C9.34494 8.27629 9.21469 8.34821 9.12348 8.45924C9.03227 8.57028 8.98701 8.71201 8.99699 8.85536C9.00696 8.99871 9.07143 9.1328 9.17714 9.23013C9.28286 9.32746 9.42182 9.38063 9.5655 9.37875L11.4397 9.375L11.5155 9.36975C11.6568 9.35032 11.7854 9.27796 11.8753 9.16733C11.9652 9.05669 12.0098 8.91603 12 8.77379C11.9902 8.63154 11.9267 8.49833 11.8224 8.40109C11.7181 8.30386 11.5808 8.24985 11.4382 8.25H11.4375ZM11.4382 5.628H4.311L4.2345 5.63325C4.09331 5.65268 3.96476 5.72497 3.87482 5.83553C3.78489 5.94608 3.74027 6.08665 3.74998 6.22884C3.75969 6.37103 3.82302 6.50422 3.92716 6.60152C4.03129 6.69882 4.16848 6.75296 4.311 6.753H11.439L11.5155 6.7485C11.6579 6.73044 11.788 6.65862 11.8792 6.54776C11.9704 6.43689 12.0157 6.29536 12.0059 6.15216C11.9961 6.00895 11.932 5.8749 11.8266 5.77745C11.7212 5.68001 11.5825 5.62654 11.439 5.628H11.4382Z" fill="#E89C83"/>
</svg>
