<svg width="18" height="18" viewBox="0 0 18 18" fill="none" xmlns="http://www.w3.org/2000/svg">
<path d="M13.3125 2.25C13.959 2.25 14.579 2.50681 15.0361 2.96393C15.4932 3.42105 15.75 4.04103 15.75 4.6875V13.3125C15.75 13.959 15.4932 14.579 15.0361 15.0361C14.579 15.4932 13.959 15.75 13.3125 15.75H4.6875C4.04103 15.75 3.42105 15.4932 2.96393 15.0361C2.50681 14.579 2.25 13.959 2.25 13.3125V4.6875C2.25 4.04103 2.50681 3.42105 2.96393 2.96393C3.42105 2.50681 4.04103 2.25 4.6875 2.25H13.3125ZM5.8125 10.125C5.56386 10.125 5.3254 10.2238 5.14959 10.3996C4.97377 10.5754 4.875 10.8139 4.875 11.0625C4.875 11.3111 4.97377 11.5496 5.14959 11.7254C5.3254 11.9012 5.56386 12 5.8125 12C6.06114 12 6.2996 11.9012 6.47541 11.7254C6.65123 11.5496 6.75 11.3111 6.75 11.0625C6.75 10.8139 6.65123 10.5754 6.47541 10.3996C6.2996 10.2238 6.06114 10.125 5.8125 10.125ZM9 10.125C8.75136 10.125 8.5129 10.2238 8.33709 10.3996C8.16127 10.5754 8.0625 10.8139 8.0625 11.0625C8.0625 11.3111 8.16127 11.5496 8.33709 11.7254C8.5129 11.9012 8.75136 12 9 12C9.24864 12 9.4871 11.9012 9.66291 11.7254C9.83873 11.5496 9.9375 11.3111 9.9375 11.0625C9.9375 10.8139 9.83873 10.5754 9.66291 10.3996C9.4871 10.2238 9.24864 10.125 9 10.125V10.125ZM5.8125 6.375C5.56386 6.375 5.3254 6.47377 5.14959 6.64959C4.97377 6.8254 4.875 7.06386 4.875 7.3125C4.875 7.56114 4.97377 7.7996 5.14959 7.97541C5.3254 8.15123 5.56386 8.25 5.8125 8.25C6.06114 8.25 6.2996 8.15123 6.47541 7.97541C6.65123 7.7996 6.75 7.56114 6.75 7.3125C6.75 7.06386 6.65123 6.8254 6.47541 6.64959C6.2996 6.47377 6.06114 6.375 5.8125 6.375ZM9 6.375C8.75136 6.375 8.5129 6.47377 8.33709 6.64959C8.16127 6.8254 8.0625 7.06386 8.0625 7.3125C8.0625 7.56114 8.16127 7.7996 8.33709 7.97541C8.5129 8.15123 8.75136 8.25 9 8.25C9.24864 8.25 9.4871 8.15123 9.66291 7.97541C9.83873 7.7996 9.9375 7.56114 9.9375 7.3125C9.9375 7.06386 9.83873 6.8254 9.66291 6.64959C9.4871 6.47377 9.24864 6.375 9 6.375V6.375ZM12.1875 6.375C11.9389 6.375 11.7004 6.47377 11.5246 6.64959C11.3488 6.8254 11.25 7.06386 11.25 7.3125C11.25 7.56114 11.3488 7.7996 11.5246 7.97541C11.7004 8.15123 11.9389 8.25 12.1875 8.25C12.4361 8.25 12.6746 8.15123 12.8504 7.97541C13.0262 7.7996 13.125 7.56114 13.125 7.3125C13.125 7.06386 13.0262 6.8254 12.8504 6.64959C12.6746 6.47377 12.4361 6.375 12.1875 6.375Z" fill="#DDA652"/>
</svg>
