<svg width="29" height="29" viewBox="0 0 29 29" fill="none" xmlns="http://www.w3.org/2000/svg">
<path d="M25.2917 0.625C26.1094 0.625 26.8937 0.94985 27.4719 1.52809C28.0502 2.10632 28.375 2.89058 28.375 3.70833V25.2917C28.375 26.1094 28.0502 26.8937 27.4719 27.4719C26.8937 28.0502 26.1094 28.375 25.2917 28.375H3.70833C2.89058 28.375 2.10632 28.0502 1.52809 27.4719C0.94985 26.8937 0.625 26.1094 0.625 25.2917V3.70833C0.625 2.89058 0.94985 2.10632 1.52809 1.52809C2.10632 0.94985 2.89058 0.625 3.70833 0.625H25.2917ZM24.5208 24.5208V16.35C24.5208 15.0171 23.9913 13.7387 23.0488 12.7962C22.1063 11.8537 20.8279 11.3242 19.495 11.3242C18.1846 11.3242 16.6583 12.1258 15.9183 13.3283V11.6171H11.6171V24.5208H15.9183V16.9204C15.9183 15.7333 16.8742 14.7621 18.0613 14.7621C18.6337 14.7621 19.1827 14.9895 19.5874 15.3942C19.9922 15.799 20.2196 16.348 20.2196 16.9204V24.5208H24.5208ZM6.60667 9.19667C7.29358 9.19667 7.95235 8.92379 8.43807 8.43807C8.92379 7.95235 9.19667 7.29358 9.19667 6.60667C9.19667 5.17292 8.04042 4.00125 6.60667 4.00125C5.91567 4.00125 5.25297 4.27575 4.76436 4.76436C4.27575 5.25297 4.00125 5.91567 4.00125 6.60667C4.00125 8.04042 5.17292 9.19667 6.60667 9.19667M8.74958 24.5208V11.6171H4.47917V24.5208H8.74958V24.5208Z" fill="white"/>
</svg>
