<svg width="18" height="18" viewBox="0 0 18 18" fill="none" xmlns="http://www.w3.org/2000/svg">
<path d="M8.6685 10.2353L8.60625 10.2878L3.41025 15.3892C3.7942 15.6259 4.2365 15.7508 4.6875 15.75H13.3125C13.7812 15.75 14.2185 15.618 14.5897 15.3892L9.39375 10.2885L9.324 10.23C9.2279 10.1623 9.11298 10.1263 8.99541 10.1273C8.87783 10.1282 8.7635 10.166 8.6685 10.2353V10.2353ZM15.75 4.6875C15.75 4.04103 15.4932 3.42105 15.0361 2.96393C14.579 2.50681 13.959 2.25 13.3125 2.25H4.6875C4.04103 2.25 3.42105 2.50681 2.96393 2.96393C2.50681 3.42105 2.25 4.04103 2.25 4.6875V13.3125C2.25 13.7827 2.3835 14.2222 2.61375 14.595L7.818 9.48525L7.91925 9.39375C8.2235 9.14006 8.6073 9.00149 9.00344 9.00231C9.39958 9.00314 9.78281 9.1433 10.086 9.39825L10.182 9.486L15.3862 14.5942C15.6247 14.2093 15.7507 13.7653 15.75 13.3125V4.6875ZM11.4375 8.0625C11.0397 8.0625 10.6581 7.90446 10.3768 7.62316C10.0955 7.34186 9.9375 6.96032 9.9375 6.5625C9.9375 6.16468 10.0955 5.78314 10.3768 5.50184C10.6581 5.22054 11.0397 5.0625 11.4375 5.0625C11.8353 5.0625 12.2169 5.22054 12.4982 5.50184C12.7795 5.78314 12.9375 6.16468 12.9375 6.5625C12.9375 6.96032 12.7795 7.34186 12.4982 7.62316C12.2169 7.90446 11.8353 8.0625 11.4375 8.0625Z" fill="#80B3F3"/>
</svg>
