<svg width="18" height="18" viewBox="0 0 18 18" fill="none" xmlns="http://www.w3.org/2000/svg">
<path d="M7.50001 1.875C8.54849 1.87496 9.57612 2.16796 10.4669 2.72094C11.3577 3.27392 12.0762 4.06487 12.5414 5.00453C13.0065 5.94418 13.1998 6.99514 13.0994 8.03881C12.9989 9.08247 12.6088 10.0773 11.973 10.911L15.5303 14.4697C15.6648 14.6047 15.7429 14.7858 15.7487 14.9763C15.7545 15.1667 15.6876 15.3523 15.5616 15.4952C15.4355 15.6381 15.2598 15.7277 15.0702 15.7458C14.8805 15.7639 14.691 15.7091 14.5403 15.5925L14.4698 15.5303L10.911 11.973C10.2008 12.5146 9.37175 12.8792 8.49259 13.0368C7.61343 13.1943 6.70938 13.1403 5.85526 12.8791C5.00114 12.6179 4.2215 12.157 3.58085 11.5347C2.9402 10.9123 2.45697 10.1463 2.17113 9.30014C1.88529 8.45394 1.80507 7.55184 1.93711 6.66848C2.06914 5.78512 2.40963 4.94591 2.9304 4.22027C3.45118 3.49463 4.13727 2.90344 4.93189 2.49561C5.72652 2.08779 6.60684 1.87505 7.50001 1.875V1.875ZM7.50001 3.375C6.40599 3.375 5.35678 3.8096 4.58319 4.58318C3.80961 5.35677 3.37501 6.40598 3.37501 7.5C3.37501 8.59402 3.80961 9.64323 4.58319 10.4168C5.35678 11.1904 6.40599 11.625 7.50001 11.625C8.59403 11.625 9.64324 11.1904 10.4168 10.4168C11.1904 9.64323 11.625 8.59402 11.625 7.5C11.625 6.40598 11.1904 5.35677 10.4168 4.58318C9.64324 3.8096 8.59403 3.375 7.50001 3.375Z" fill="white" fill-opacity="0.14"/>
</svg>
