<svg width="18" height="18" viewBox="0 0 18 18" fill="none" xmlns="http://www.w3.org/2000/svg">
<path d="M1.5 4.6875C1.5 4.04103 1.75681 3.42105 2.21393 2.96393C2.67105 2.50681 3.29103 2.25 3.9375 2.25H14.0625C14.3826 2.25 14.6996 2.31305 14.9953 2.43554C15.291 2.55804 15.5597 2.73758 15.7861 2.96393C16.0124 3.19027 16.192 3.45898 16.3145 3.75471C16.437 4.05044 16.5 4.3674 16.5 4.6875V13.3125C16.5 13.6326 16.437 13.9496 16.3145 14.2453C16.192 14.541 16.0124 14.8097 15.7861 15.0361C15.5597 15.2624 15.291 15.442 14.9953 15.5645C14.6996 15.687 14.3826 15.75 14.0625 15.75H3.9375C3.29103 15.75 2.67105 15.4932 2.21393 15.0361C1.75681 14.579 1.5 13.959 1.5 13.3125V4.6875ZM7.125 7.038V10.9612C7.125 11.3887 7.5825 11.6602 7.9575 11.4547L11.547 9.49275C11.6356 9.44431 11.7095 9.37293 11.7609 9.2861C11.8124 9.19927 11.8396 9.10019 11.8396 8.99925C11.8396 8.89831 11.8124 8.79923 11.7609 8.7124C11.7095 8.62557 11.6356 8.55419 11.547 8.50575L7.9575 6.5445C7.87184 6.49763 7.77545 6.47387 7.67781 6.47555C7.58018 6.47723 7.48466 6.5043 7.40066 6.55409C7.31667 6.60389 7.24708 6.67469 7.19874 6.75954C7.15041 6.84438 7.12499 6.94035 7.125 7.038V7.038Z" fill="#8EBF6A"/>
</svg>
